<svg xmlns="http://www.w3.org/2000/svg" width="512" height="512" id="virus"><path fill="#F05254" d="M449.251 228.001c-11.576 0-21.51 7.024-25.771 17.042h-29.739v.07c-2.337-29.979-14.245-57.268-32.667-78.825l.066.066 21.037-21.035c10.091 4.066 22.082 2.009 30.273-6.172 10.932-10.932 10.932-28.655 0-39.6-10.943-10.932-28.668-10.932-39.6 0-8.181 8.193-10.237 20.184-6.172 30.275l-21.036 21.035.063.063c-21.554-18.419-48.839-30.325-78.813-32.663h.063v-29.74c10.019-4.26 17.043-14.194 17.043-25.771 0-15.46-12.539-27.999-27.999-27.999-15.46 0-27.999 12.538-27.999 27.999 0 11.577 7.024 21.51 17.042 25.771v29.74h.063c-29.976 2.338-57.263 14.246-78.817 32.667l.066-.067-21.035-21.035c4.066-10.092 2.009-22.083-6.172-30.275-10.932-10.932-28.668-10.932-39.6 0-10.932 10.944-10.932 28.668 0 39.6 8.193 8.181 20.184 10.238 30.275 6.172l21.035 21.035.067-.066c-18.421 21.555-30.328 48.841-32.667 78.817v-.063h-29.74C84.257 235.023 74.323 228 62.746 228c-15.46 0-27.999 12.538-27.999 27.999 0 15.46 12.538 27.999 27.999 27.999 11.577 0 21.51-7.024 25.771-17.043h29.74v-.063c2.338 29.975 14.244 57.26 32.663 78.813l-.063-.063-21.035 21.036c-10.092-4.065-22.083-2.009-30.275 6.172-10.932 10.932-10.932 28.656 0 39.6 10.932 10.932 28.668 10.932 39.6 0 8.181-8.191 10.238-20.183 6.172-30.273l21.035-21.037-.066-.066c21.557 18.422 48.846 30.33 78.825 32.667h-.07v29.739c-10.019 4.261-17.042 14.194-17.042 25.771 0 15.46 12.538 27.999 27.999 27.999 15.46 0 27.999-12.539 27.999-27.999 0-11.576-7.024-21.51-17.043-25.771v-29.739h-.068c29.977-2.337 57.264-14.242 78.819-32.663l-.063.063 21.036 21.037c-4.065 10.091-2.009 22.082 6.172 30.273 10.932 10.932 28.656 10.932 39.6 0 10.932-10.932 10.932-28.668 0-39.6-8.191-8.181-20.183-10.237-30.273-6.172l-21.037-21.036-.063.063c18.421-21.556 30.326-48.843 32.663-78.819v.068h29.739c4.261 10.019 14.194 17.043 25.771 17.043 15.46 0 27.999-12.539 27.999-27.999-.001-15.459-12.54-27.998-28-27.998z"></path><path d="M477.25 256c0 15.46-12.539 28-28 28-11.58 0-21.51-7.03-25.77-17.04h-29.74v-.07c-2.34 29.971-14.24 57.261-32.67 78.82l.07-.07 21.029 21.04c10.09-4.069 22.09-2.01 30.28 6.17 10.931 10.931 10.931 28.67 0 39.601-10.95 10.93-28.67 10.93-39.601 0-8.18-8.19-10.239-20.181-6.17-30.271l-21.039-21.04.06-.06c-16.13 13.79-35.47 23.92-56.76 29.13C320.23 354.3 339.18 307.37 339.18 256s-18.949-98.31-50.25-134.21c21.291 5.2 40.641 15.34 56.771 29.13l-.06-.06 21.039-21.04c-4.069-10.09-2.01-22.08 6.17-30.27 10.931-10.93 28.65-10.93 39.601 0 10.931 10.94 10.931 28.67 0 39.6-8.19 8.18-20.19 10.24-30.28 6.17l-21.029 21.04-.07-.07c18.42 21.56 30.33 48.84 32.67 78.82v-.07h29.74c4.26-10.01 14.189-17.04 25.77-17.04 15.459 0 27.998 12.54 27.998 28z" opacity=".1"></path></svg>